<svg width="649" height="87" viewBox="0 0 649 87" fill="none" xmlns="http://www.w3.org/2000/svg">
<path d="M23 77.9C18.6667 77.9 14.7667 77.133 11.3 75.6C7.9 74 5.2 71.867 3.2 69.2C1.2 66.4667 0.133333 63.4333 0 60.1H11.8C12 62.4333 13.1 64.4 15.1 66C17.1667 67.5333 19.7333 68.3 22.8 68.3C26 68.3 28.4667 67.7 30.2 66.5C32 65.2333 32.9 63.6333 32.9 61.7C32.9 59.6333 31.9 58.1 29.9 57.1C27.9667 56.1 24.8667 55 20.6 53.8C16.4667 52.6667 13.1 51.5667 10.5 50.5C7.9 49.4333 5.63333 47.8 3.7 45.6C1.83333 43.4 0.9 40.5 0.9 36.9C0.9 33.9667 1.76667 31.3 3.5 28.9C5.23333 26.4333 7.7 24.5 10.9 23.1C14.1667 21.7 17.9 21 22.1 21C28.3667 21 33.4 22.6 37.2 25.8C41.0667 28.9333 43.1333 33.2333 43.4 38.7H32C31.8 36.2333 30.8 34.2667 29 32.8C27.2 31.3333 24.7667 30.6 21.7 30.6C18.7 30.6 16.4 31.1667 14.8 32.3C13.2 33.4333 12.4 34.9333 12.4 36.8C12.4 38.2667 12.9333 39.5 14 40.5C15.0667 41.5 16.3667 42.3 17.9 42.9C19.4333 43.4333 21.7 44.1333 24.7 45C28.7 46.0667 31.9667 47.1667 34.5 48.3C37.1 49.3667 39.3333 50.9667 41.2 53.1C43.0667 55.2333 44.0333 58.0667 44.1 61.6C44.1 64.7333 43.2333 67.5333 41.5 70C39.7667 72.467 37.3 74.4 34.1 75.8C30.9667 77.2 27.2667 77.9 23 77.9Z" fill="url(#paint0_linear_12_2)"/>
<path d="M69.718 31.2V61.7C69.718 63.7667 70.1846 65.2667 71.118 66.2C72.118 67.0667 73.7846 67.5 76.118 67.5H83.118V77H74.118C68.9846 77 65.0513 75.8 62.318 73.4C59.5846 71 58.218 67.1 58.218 61.7V31.2H51.718V21.9H58.218V8.20001H69.718V21.9H83.118V31.2H69.718Z" fill="url(#paint1_linear_12_2)"/>
<path d="M143.525 21.9V77H132.125V70.5C130.325 72.767 127.958 74.567 125.025 75.9C122.158 77.167 119.092 77.8 115.825 77.8C111.492 77.8 107.592 76.9 104.125 75.1C100.725 73.3 98.025 70.633 96.025 67.1C94.0917 63.5667 93.125 59.3 93.125 54.3V21.9H104.425V52.6C104.425 57.5333 105.658 61.3333 108.125 64C110.592 66.6 113.958 67.9 118.225 67.9C122.492 67.9 125.858 66.6 128.325 64C130.858 61.3333 132.125 57.5333 132.125 52.6V21.9H143.525Z" fill="url(#paint2_linear_12_2)"/>
<path d="M154.766 49.2C154.766 43.6667 155.9 38.7667 158.166 34.5C160.5 30.2333 163.633 26.9333 167.566 24.6C171.566 22.2 176 21 180.866 21C184.466 21 188 21.8 191.466 23.4C195 24.9333 197.8 27 199.866 29.6V3H211.366V77H199.866V68.7C198 71.367 195.4 73.567 192.066 75.3C188.8 77.033 185.033 77.9 180.766 77.9C175.966 77.9 171.566 76.7 167.566 74.3C163.633 71.833 160.5 68.4333 158.166 64.1C155.9 59.7 154.766 54.7333 154.766 49.2ZM199.866 49.4C199.866 45.6 199.066 42.3 197.466 39.5C195.933 36.7 193.9 34.5667 191.366 33.1C188.833 31.6333 186.1 30.9 183.166 30.9C180.233 30.9 177.5 31.6333 174.966 33.1C172.433 34.5 170.366 36.6 168.766 39.4C167.233 42.1333 166.466 45.4 166.466 49.2C166.466 53 167.233 56.3333 168.766 59.2C170.366 62.0667 172.433 64.2667 174.966 65.8C177.566 67.2667 180.3 68 183.166 68C186.1 68 188.833 67.2667 191.366 65.8C193.9 64.3333 195.933 62.2 197.466 59.4C199.066 56.5333 199.866 53.2 199.866 49.4Z" fill="url(#paint3_linear_12_2)"/>
<path d="M232.14 14.6C230.073 14.6 228.34 13.9 226.94 12.5C225.54 11.1 224.84 9.3667 224.84 7.3C224.84 5.2333 225.54 3.5 226.94 2.1C228.34 0.699998 230.073 0 232.14 0C234.14 0 235.84 0.699998 237.24 2.1C238.64 3.5 239.34 5.2333 239.34 7.3C239.34 9.3667 238.64 11.1 237.24 12.5C235.84 13.9 234.14 14.6 232.14 14.6ZM237.74 21.9V77H226.34V21.9H237.74Z" fill="url(#paint4_linear_12_2)"/>
<path d="M276.607 77.9C271.407 77.9 266.707 76.733 262.507 74.4C258.307 72 255.007 68.6667 252.607 64.4C250.207 60.0667 249.007 55.0667 249.007 49.4C249.007 43.8 250.24 38.8333 252.707 34.5C255.174 30.1667 258.54 26.8333 262.807 24.5C267.074 22.1667 271.84 21 277.107 21C282.374 21 287.14 22.1667 291.407 24.5C295.674 26.8333 299.04 30.1667 301.507 34.5C303.974 38.8333 305.207 43.8 305.207 49.4C305.207 55 303.94 59.9667 301.407 64.3C298.874 68.6333 295.407 72 291.007 74.4C286.674 76.733 281.874 77.9 276.607 77.9ZM276.607 68C279.54 68 282.274 67.3 284.807 65.9C287.407 64.5 289.507 62.4 291.107 59.6C292.707 56.8 293.507 53.4 293.507 49.4C293.507 45.4 292.74 42.0333 291.207 39.3C289.674 36.5 287.64 34.4 285.107 33C282.574 31.6 279.84 30.9 276.907 30.9C273.974 30.9 271.24 31.6 268.707 33C266.24 34.4 264.274 36.5 262.807 39.3C261.34 42.0333 260.607 45.4 260.607 49.4C260.607 55.3333 262.107 59.9333 265.107 63.2C268.174 66.4 272.007 68 276.607 68Z" fill="url(#paint5_linear_12_2)"/>
<path d="M418.4 30.1C420.333 27.4333 422.967 25.2667 426.3 23.6C429.7 21.8667 433.467 21 437.6 21C442.467 21 446.867 22.1667 450.8 24.5C454.733 26.8333 457.833 30.1667 460.1 34.5C462.367 38.7667 463.5 43.6667 463.5 49.2C463.5 54.7333 462.367 59.7 460.1 64.1C457.833 68.4333 454.7 71.833 450.7 74.3C446.767 76.7 442.4 77.9 437.6 77.9C433.333 77.9 429.533 77.067 426.2 75.4C422.933 73.733 420.333 71.6 418.4 69V77H407V3H418.4V30.1ZM451.9 49.2C451.9 45.4 451.1 42.1333 449.5 39.4C447.967 36.6 445.9 34.5 443.3 33.1C440.767 31.6333 438.033 30.9 435.1 30.9C432.233 30.9 429.5 31.6333 426.9 33.1C424.367 34.5667 422.3 36.7 420.7 39.5C419.167 42.3 418.4 45.6 418.4 49.4C418.4 53.2 419.167 56.5333 420.7 59.4C422.3 62.2 424.367 64.3333 426.9 65.8C429.5 67.2667 432.233 68 435.1 68C438.033 68 440.767 67.2667 443.3 65.8C445.9 64.2667 447.967 62.0667 449.5 59.2C451.1 56.3333 451.9 53 451.9 49.2Z" fill="url(#paint6_linear_12_2)"/>
<path d="M525.273 48.1C525.273 50.1667 525.14 52.0333 524.873 53.7H482.773C483.107 58.1 484.74 61.6333 487.673 64.3C490.607 66.9667 494.207 68.3 498.473 68.3C504.607 68.3 508.94 65.7333 511.473 60.6H523.773C522.107 65.6667 519.073 69.8333 514.673 73.1C510.34 76.3 504.94 77.9 498.473 77.9C493.207 77.9 488.473 76.733 484.273 74.4C480.14 72 476.873 68.6667 474.473 64.4C472.14 60.0667 470.973 55.0667 470.973 49.4C470.973 43.7333 472.107 38.7667 474.373 34.5C476.707 30.1667 479.94 26.8333 484.073 24.5C488.273 22.1667 493.073 21 498.473 21C503.673 21 508.307 22.1333 512.373 24.4C516.44 26.6667 519.607 29.8667 521.873 34C524.14 38.0667 525.273 42.7667 525.273 48.1ZM513.373 44.5C513.307 40.3 511.807 36.9333 508.873 34.4C505.94 31.8667 502.307 30.6 497.973 30.6C494.04 30.6 490.673 31.8667 487.873 34.4C485.073 36.8667 483.407 40.2333 482.873 44.5H513.373Z" fill="url(#paint7_linear_12_2)"/>
<path d="M586.992 48.1C586.992 50.1667 586.859 52.0333 586.592 53.7H544.492C544.826 58.1 546.459 61.6333 549.392 64.3C552.326 66.9667 555.926 68.3 560.192 68.3C566.326 68.3 570.659 65.7333 573.192 60.6H585.492C583.826 65.6667 580.792 69.8333 576.392 73.1C572.059 76.3 566.659 77.9 560.192 77.9C554.926 77.9 550.192 76.733 545.992 74.4C541.859 72 538.592 68.6667 536.192 64.4C533.859 60.0667 532.692 55.0667 532.692 49.4C532.692 43.7333 533.826 38.7667 536.092 34.5C538.425 30.1667 541.659 26.8333 545.792 24.5C549.992 22.1667 554.792 21 560.192 21C565.392 21 570.026 22.1333 574.092 24.4C578.159 26.6667 581.326 29.8667 583.592 34C585.859 38.0667 586.992 42.7667 586.992 48.1ZM575.092 44.5C575.026 40.3 573.526 36.9333 570.592 34.4C567.659 31.8667 564.026 30.6 559.692 30.6C555.759 30.6 552.392 31.8667 549.592 34.4C546.792 36.8667 545.125 40.2333 544.592 44.5H575.092Z" fill="url(#paint8_linear_12_2)"/>
<path d="M626.011 21C630.344 21 634.211 21.9 637.611 23.7C641.078 25.5 643.778 28.1667 645.711 31.7C647.644 35.2333 648.611 39.5 648.611 44.5V77H637.311V46.2C637.311 41.2667 636.078 37.5 633.611 34.9C631.144 32.2333 627.778 30.9 623.511 30.9C619.244 30.9 615.844 32.2333 613.311 34.9C610.844 37.5 609.611 41.2667 609.611 46.2V77H598.211V21.9H609.611V28.2C611.478 25.9333 613.844 24.1667 616.711 22.9C619.644 21.6333 622.744 21 626.011 21Z" fill="url(#paint9_linear_12_2)"/>
<path d="M399 44C399 67.7483 379.748 87 356 87C332.252 87 313 67.7483 313 44C313 20.2518 332.252 1 356 1C379.748 1 399 20.2518 399 44Z" fill="url(#paint10_linear_12_2)"/>
<defs>
<linearGradient id="paint0_linear_12_2" x1="0" y1="43.5" x2="711.611" y2="43.5" gradientUnits="userSpaceOnUse">
<stop stop-color="#0A6545"/>
<stop offset="0.4" stop-color="#263396"/>
<stop offset="0.6" stop-color="#20949A"/>
<stop offset="0.8" stop-color="#92C3A1"/>
</linearGradient>
<linearGradient id="paint1_linear_12_2" x1="2.56103e-05" y1="43.5" x2="711.611" y2="43.5" gradientUnits="userSpaceOnUse">
<stop stop-color="#0A6545"/>
<stop offset="0.4" stop-color="#263396"/>
<stop offset="0.6" stop-color="#20949A"/>
<stop offset="0.8" stop-color="#92C3A1"/>
</linearGradient>
<linearGradient id="paint2_linear_12_2" x1="1.06122e-05" y1="43.5" x2="711.611" y2="43.5" gradientUnits="userSpaceOnUse">
<stop stop-color="#0A6545"/>
<stop offset="0.4" stop-color="#263396"/>
<stop offset="0.6" stop-color="#20949A"/>
<stop offset="0.8" stop-color="#92C3A1"/>
</linearGradient>
<linearGradient id="paint3_linear_12_2" x1="3.57011e-05" y1="43.5" x2="711.611" y2="43.5" gradientUnits="userSpaceOnUse">
<stop stop-color="#0A6545"/>
<stop offset="0.4" stop-color="#263396"/>
<stop offset="0.6" stop-color="#20949A"/>
<stop offset="0.8" stop-color="#92C3A1"/>
</linearGradient>
<linearGradient id="paint4_linear_12_2" x1="-3.60296e-07" y1="43.5" x2="711.611" y2="43.5" gradientUnits="userSpaceOnUse">
<stop stop-color="#0A6545"/>
<stop offset="0.4" stop-color="#263396"/>
<stop offset="0.6" stop-color="#20949A"/>
<stop offset="0.8" stop-color="#92C3A1"/>
</linearGradient>
<linearGradient id="paint5_linear_12_2" x1="-1.01506e-06" y1="43.5" x2="711.611" y2="43.5" gradientUnits="userSpaceOnUse">
<stop stop-color="#0A6545"/>
<stop offset="0.4" stop-color="#263396"/>
<stop offset="0.6" stop-color="#20949A"/>
<stop offset="0.8" stop-color="#92C3A1"/>
</linearGradient>
<linearGradient id="paint6_linear_12_2" x1="-63" y1="43.5" x2="648.611" y2="43.5" gradientUnits="userSpaceOnUse">
<stop stop-color="#92C3A1"/>
<stop offset="0.5" stop-color="#34D3C4"/>
<stop offset="1" stop-color="#0A6545"/>
</linearGradient>
<linearGradient id="paint7_linear_12_2" x1="-62.9999" y1="43.5" x2="648.611" y2="43.5" gradientUnits="userSpaceOnUse">
<stop stop-color="#92C3A1"/>
<stop offset="0.5" stop-color="#34D3C4"/>
<stop offset="1" stop-color="#0A6545"/>
</linearGradient>
<linearGradient id="paint8_linear_12_2" x1="-62.9999" y1="43.5" x2="648.611" y2="43.5" gradientUnits="userSpaceOnUse">
<stop stop-color="#92C3A1"/>
<stop offset="0.5" stop-color="#34D3C4"/>
<stop offset="1" stop-color="#0A6545"/>
</linearGradient>
<linearGradient id="paint9_linear_12_2" x1="-63.0003" y1="43.5" x2="648.611" y2="43.5" gradientUnits="userSpaceOnUse">
<stop stop-color="#92C3A1"/>
<stop offset="0.5" stop-color="#34D3C4"/>
<stop offset="1" stop-color="#0A6545"/>
</linearGradient>
<linearGradient id="paint10_linear_12_2" x1="292.231" y1="44.2925" x2="418.599" y2="44.2925" gradientUnits="userSpaceOnUse">
<stop stop-color="#34D3C4"/>
<stop offset="0.5" stop-color="#263396"/>
<stop offset="1" stop-color="#20949A"/>
</linearGradient>
</defs>
</svg>
