<svg width="712" height="147" viewBox="0 0 712 147" fill="none" xmlns="http://www.w3.org/2000/svg">
<path d="M23 107.9C18.6667 107.9 14.7667 107.133 11.3 105.6C7.9 104 5.2 101.867 3.2 99.2C1.2 96.4667 0.133333 93.4333 0 90.1H11.8C12 92.4333 13.1 94.4 15.1 96C17.1667 97.5333 19.7333 98.3 22.8 98.3C26 98.3 28.4667 97.7 30.2 96.5C32 95.2333 32.9 93.6333 32.9 91.7C32.9 89.6333 31.9 88.1 29.9 87.1C27.9667 86.1 24.8667 85 20.6 83.8C16.4667 82.6667 13.1 81.5667 10.5 80.5C7.9 79.4333 5.63333 77.8 3.7 75.6C1.83333 73.4 0.9 70.5 0.9 66.9C0.9 63.9667 1.76667 61.3 3.5 58.9C5.23333 56.4333 7.7 54.5 10.9 53.1C14.1667 51.7 17.9 51 22.1 51C28.3667 51 33.4 52.6 37.2 55.8C41.0667 58.9333 43.1333 63.2333 43.4 68.7H32C31.8 66.2333 30.8 64.2667 29 62.8C27.2 61.3333 24.7667 60.6 21.7 60.6C18.7 60.6 16.4 61.1667 14.8 62.3C13.2 63.4333 12.4 64.9333 12.4 66.8C12.4 68.2667 12.9333 69.5 14 70.5C15.0667 71.5 16.3667 72.3 17.9 72.9C19.4333 73.4333 21.7 74.1333 24.7 75C28.7 76.0667 31.9667 77.1667 34.5 78.3C37.1 79.3667 39.3333 80.9667 41.2 83.1C43.0667 85.2333 44.0333 88.0667 44.1 91.6C44.1 94.7333 43.2333 97.5333 41.5 100C39.7667 102.467 37.3 104.4 34.1 105.8C30.9667 107.2 27.2667 107.9 23 107.9Z" fill="url(#paint0_linear_14_42)"/>
<path d="M69.718 61.2V91.7C69.718 93.7667 70.1846 95.2667 71.118 96.2C72.118 97.0667 73.7846 97.5 76.118 97.5H83.118V107H74.118C68.9846 107 65.0513 105.8 62.318 103.4C59.5846 101 58.218 97.1 58.218 91.7V61.2H51.718V51.9H58.218V38.2H69.718V51.9H83.118V61.2H69.718Z" fill="url(#paint1_linear_14_42)"/>
<path d="M143.525 51.9V107H132.125V100.5C130.325 102.767 127.958 104.567 125.025 105.9C122.158 107.167 119.092 107.8 115.825 107.8C111.492 107.8 107.592 106.9 104.125 105.1C100.725 103.3 98.025 100.633 96.025 97.1C94.0917 93.5667 93.125 89.3 93.125 84.3V51.9H104.425V82.6C104.425 87.5333 105.658 91.3333 108.125 94C110.592 96.6 113.958 97.9 118.225 97.9C122.492 97.9 125.858 96.6 128.325 94C130.858 91.3333 132.125 87.5333 132.125 82.6V51.9H143.525Z" fill="url(#paint2_linear_14_42)"/>
<path d="M154.766 79.2C154.766 73.6667 155.9 68.7667 158.166 64.5C160.5 60.2333 163.633 56.9333 167.566 54.6C171.566 52.2 176 51 180.866 51C184.466 51 188 51.8 191.466 53.4C195 54.9333 197.8 57 199.866 59.6V33H211.366V107H199.866V98.7C198 101.367 195.4 103.567 192.066 105.3C188.8 107.033 185.033 107.9 180.766 107.9C175.966 107.9 171.566 106.7 167.566 104.3C163.633 101.833 160.5 98.4333 158.166 94.1C155.9 89.7 154.766 84.7333 154.766 79.2ZM199.866 79.4C199.866 75.6 199.066 72.3 197.466 69.5C195.933 66.7 193.9 64.5667 191.366 63.1C188.833 61.6333 186.1 60.9 183.166 60.9C180.233 60.9 177.5 61.6333 174.966 63.1C172.433 64.5 170.366 66.6 168.766 69.4C167.233 72.1333 166.466 75.4 166.466 79.2C166.466 83 167.233 86.3333 168.766 89.2C170.366 92.0667 172.433 94.2667 174.966 95.8C177.566 97.2667 180.3 98 183.166 98C186.1 98 188.833 97.2667 191.366 95.8C193.9 94.3333 195.933 92.2 197.466 89.4C199.066 86.5333 199.866 83.2 199.866 79.4Z" fill="url(#paint3_linear_14_42)"/>
<path d="M232.14 44.6C230.073 44.6 228.34 43.9 226.94 42.5C225.54 41.1 224.84 39.3667 224.84 37.3C224.84 35.2333 225.54 33.5 226.94 32.1C228.34 30.7 230.073 30 232.14 30C234.14 30 235.84 30.7 237.24 32.1C238.64 33.5 239.34 35.2333 239.34 37.3C239.34 39.3667 238.64 41.1 237.24 42.5C235.84 43.9 234.14 44.6 232.14 44.6ZM237.74 51.9V107H226.34V51.9H237.74Z" fill="url(#paint4_linear_14_42)"/>
<path d="M276.607 107.9C271.407 107.9 266.707 106.733 262.507 104.4C258.307 102 255.007 98.6667 252.607 94.4C250.207 90.0667 249.007 85.0667 249.007 79.4C249.007 73.8 250.24 68.8333 252.707 64.5C255.174 60.1667 258.54 56.8333 262.807 54.5C267.074 52.1667 271.84 51 277.107 51C282.374 51 287.14 52.1667 291.407 54.5C295.674 56.8333 299.04 60.1667 301.507 64.5C303.974 68.8333 305.207 73.8 305.207 79.4C305.207 85 303.94 89.9667 301.407 94.3C298.874 98.6333 295.407 102 291.007 104.4C286.674 106.733 281.874 107.9 276.607 107.9ZM276.607 98C279.54 98 282.274 97.3 284.807 95.9C287.407 94.5 289.507 92.4 291.107 89.6C292.707 86.8 293.507 83.4 293.507 79.4C293.507 75.4 292.74 72.0333 291.207 69.3C289.674 66.5 287.64 64.4 285.107 63C282.574 61.6 279.84 60.9 276.907 60.9C273.974 60.9 271.24 61.6 268.707 63C266.24 64.4 264.274 66.5 262.807 69.3C261.34 72.0333 260.607 75.4 260.607 79.4C260.607 85.3333 262.107 89.9333 265.107 93.2C268.174 96.4 272.007 98 276.607 98Z" fill="url(#paint5_linear_14_42)"/>
<path d="M481.4 60.1C483.333 57.4333 485.967 55.2667 489.3 53.6C492.7 51.8667 496.467 51 500.6 51C505.467 51 509.867 52.1667 513.8 54.5C517.733 56.8333 520.833 60.1667 523.1 64.5C525.367 68.7667 526.5 73.6667 526.5 79.2C526.5 84.7333 525.367 89.7 523.1 94.1C520.833 98.4333 517.7 101.833 513.7 104.3C509.767 106.7 505.4 107.9 500.6 107.9C496.333 107.9 492.533 107.067 489.2 105.4C485.933 103.733 483.333 101.6 481.4 99V107H470V33H481.4V60.1ZM514.9 79.2C514.9 75.4 514.1 72.1333 512.5 69.4C510.967 66.6 508.9 64.5 506.3 63.1C503.767 61.6333 501.033 60.9 498.1 60.9C495.233 60.9 492.5 61.6333 489.9 63.1C487.367 64.5667 485.3 66.7 483.7 69.5C482.167 72.3 481.4 75.6 481.4 79.4C481.4 83.2 482.167 86.5333 483.7 89.4C485.3 92.2 487.367 94.3333 489.9 95.8C492.5 97.2667 495.233 98 498.1 98C501.033 98 503.767 97.2667 506.3 95.8C508.9 94.2667 510.967 92.0667 512.5 89.2C514.1 86.3333 514.9 83 514.9 79.2Z" fill="url(#paint6_linear_14_42)"/>
<path d="M588.273 78.1C588.273 80.1667 588.14 82.0333 587.873 83.7H545.773C546.107 88.1 547.74 91.6333 550.673 94.3C553.607 96.9667 557.207 98.3 561.473 98.3C567.607 98.3 571.94 95.7333 574.473 90.6H586.773C585.107 95.6667 582.073 99.8333 577.673 103.1C573.34 106.3 567.94 107.9 561.473 107.9C556.207 107.9 551.473 106.733 547.273 104.4C543.14 102 539.873 98.6667 537.473 94.4C535.14 90.0667 533.973 85.0667 533.973 79.4C533.973 73.7333 535.107 68.7667 537.373 64.5C539.707 60.1667 542.94 56.8333 547.073 54.5C551.273 52.1667 556.073 51 561.473 51C566.673 51 571.307 52.1333 575.373 54.4C579.44 56.6667 582.607 59.8667 584.873 64C587.14 68.0667 588.273 72.7667 588.273 78.1ZM576.373 74.5C576.307 70.3 574.807 66.9333 571.873 64.4C568.94 61.8667 565.307 60.6 560.973 60.6C557.04 60.6 553.673 61.8667 550.873 64.4C548.073 66.8667 546.407 70.2333 545.873 74.5H576.373Z" fill="url(#paint7_linear_14_42)"/>
<path d="M649.992 78.1C649.992 80.1667 649.859 82.0333 649.592 83.7H607.492C607.826 88.1 609.459 91.6333 612.392 94.3C615.326 96.9667 618.926 98.3 623.192 98.3C629.326 98.3 633.659 95.7333 636.192 90.6H648.492C646.826 95.6667 643.792 99.8333 639.392 103.1C635.059 106.3 629.659 107.9 623.192 107.9C617.926 107.9 613.192 106.733 608.992 104.4C604.859 102 601.592 98.6667 599.192 94.4C596.859 90.0667 595.692 85.0667 595.692 79.4C595.692 73.7333 596.826 68.7667 599.092 64.5C601.425 60.1667 604.659 56.8333 608.792 54.5C612.992 52.1667 617.792 51 623.192 51C628.392 51 633.026 52.1333 637.092 54.4C641.159 56.6667 644.326 59.8667 646.592 64C648.859 68.0667 649.992 72.7667 649.992 78.1ZM638.092 74.5C638.026 70.3 636.526 66.9333 633.592 64.4C630.659 61.8667 627.026 60.6 622.692 60.6C618.759 60.6 615.392 61.8667 612.592 64.4C609.792 66.8667 608.125 70.2333 607.592 74.5H638.092Z" fill="url(#paint8_linear_14_42)"/>
<path d="M689.011 51C693.344 51 697.211 51.9 700.611 53.7C704.078 55.5 706.778 58.1667 708.711 61.7C710.644 65.2333 711.611 69.5 711.611 74.5V107H700.311V76.2C700.311 71.2667 699.078 67.5 696.611 64.9C694.144 62.2333 690.778 60.9 686.511 60.9C682.244 60.9 678.844 62.2333 676.311 64.9C673.844 67.5 672.611 71.2667 672.611 76.2V107H661.211V51.9H672.611V58.2C674.478 55.9333 676.844 54.1667 679.711 52.9C682.644 51.6333 685.744 51 689.011 51Z" fill="url(#paint9_linear_14_42)"/>
<path d="M459.5 73.5C459.5 114.093 426.593 147 386 147C345.407 147 312.5 114.093 312.5 73.5C312.5 32.9071 345.407 0 386 0C426.593 0 459.5 32.9071 459.5 73.5Z" fill="url(#paint10_linear_14_42)"/>
<defs>
<linearGradient id="paint0_linear_14_42" x1="0" y1="73.5" x2="711.611" y2="73.5" gradientUnits="userSpaceOnUse">
<stop stop-color="#0A6545"/>
<stop offset="0.4" stop-color="#263396"/>
<stop offset="0.6" stop-color="#20949A"/>
<stop offset="0.8" stop-color="#92C3A1"/>
</linearGradient>
<linearGradient id="paint1_linear_14_42" x1="0" y1="73.5" x2="711.611" y2="73.5" gradientUnits="userSpaceOnUse">
<stop stop-color="#0A6545"/>
<stop offset="0.4" stop-color="#263396"/>
<stop offset="0.6" stop-color="#20949A"/>
<stop offset="0.8" stop-color="#92C3A1"/>
</linearGradient>
<linearGradient id="paint2_linear_14_42" x1="0" y1="73.5" x2="711.611" y2="73.5" gradientUnits="userSpaceOnUse">
<stop stop-color="#0A6545"/>
<stop offset="0.4" stop-color="#263396"/>
<stop offset="0.6" stop-color="#20949A"/>
<stop offset="0.8" stop-color="#92C3A1"/>
</linearGradient>
<linearGradient id="paint3_linear_14_42" x1="0" y1="73.5" x2="711.611" y2="73.5" gradientUnits="userSpaceOnUse">
<stop stop-color="#0A6545"/>
<stop offset="0.4" stop-color="#263396"/>
<stop offset="0.6" stop-color="#20949A"/>
<stop offset="0.8" stop-color="#92C3A1"/>
</linearGradient>
<linearGradient id="paint4_linear_14_42" x1="0" y1="73.5" x2="711.611" y2="73.5" gradientUnits="userSpaceOnUse">
<stop stop-color="#0A6545"/>
<stop offset="0.4" stop-color="#263396"/>
<stop offset="0.6" stop-color="#20949A"/>
<stop offset="0.8" stop-color="#92C3A1"/>
</linearGradient>
<linearGradient id="paint5_linear_14_42" x1="0" y1="73.5" x2="711.611" y2="73.5" gradientUnits="userSpaceOnUse">
<stop stop-color="#0A6545"/>
<stop offset="0.4" stop-color="#263396"/>
<stop offset="0.6" stop-color="#20949A"/>
<stop offset="0.8" stop-color="#92C3A1"/>
</linearGradient>
<linearGradient id="paint6_linear_14_42" x1="0" y1="73.5" x2="711.611" y2="73.5" gradientUnits="userSpaceOnUse">
<stop stop-color="#92C3A1"/>
<stop offset="0.5" stop-color="#34D3C4"/>
<stop offset="1" stop-color="#0A6545"/>
</linearGradient>
<linearGradient id="paint7_linear_14_42" x1="0" y1="73.5" x2="711.611" y2="73.5" gradientUnits="userSpaceOnUse">
<stop stop-color="#92C3A1"/>
<stop offset="0.5" stop-color="#34D3C4"/>
<stop offset="1" stop-color="#0A6545"/>
</linearGradient>
<linearGradient id="paint8_linear_14_42" x1="0" y1="73.5" x2="711.611" y2="73.5" gradientUnits="userSpaceOnUse">
<stop stop-color="#92C3A1"/>
<stop offset="0.5" stop-color="#34D3C4"/>
<stop offset="1" stop-color="#0A6545"/>
</linearGradient>
<linearGradient id="paint9_linear_14_42" x1="0" y1="73.5" x2="711.611" y2="73.5" gradientUnits="userSpaceOnUse">
<stop stop-color="#92C3A1"/>
<stop offset="0.5" stop-color="#34D3C4"/>
<stop offset="1" stop-color="#0A6545"/>
</linearGradient>
<linearGradient id="paint10_linear_14_42" x1="277" y1="74" x2="493" y2="74" gradientUnits="userSpaceOnUse">
<stop stop-color="#34D3C4"/>
<stop offset="0.5" stop-color="#263396"/>
<stop offset="1" stop-color="#20949A"/>
</linearGradient>
</defs>
</svg>
