<svg width="473" height="66" viewBox="0 0 473 66" fill="none" xmlns="http://www.w3.org/2000/svg">
<path d="M19.3897 65.6719C15.7366 65.6719 12.4487 65.0253 9.52622 63.7329C6.65992 62.3841 4.38375 60.5859 2.69769 58.3375C1.01163 56.0333 0.112404 53.4761 0 50.666H9.94774C10.1163 52.633 11.0437 54.291 12.7297 55.6399C14.472 56.9325 16.6357 57.5788 19.221 57.5788C21.9187 57.5788 23.9982 57.073 25.4595 56.0614C26.9769 54.9935 27.7356 53.6447 27.7356 52.0148C27.7356 50.2725 26.8926 48.9799 25.2065 48.1369C23.5767 47.2939 20.9633 46.3666 17.3664 45.3549C13.8819 44.3995 11.0437 43.4722 8.8518 42.5729C6.65992 41.6737 4.74906 40.2967 3.11921 38.4421C1.54555 36.5874 0.758726 34.1426 0.758726 31.1077C0.758726 28.6349 1.48935 26.3868 2.9506 24.3635C4.41185 22.284 6.49132 20.6542 9.18901 19.4739C11.9429 18.2937 15.0902 17.7036 18.6309 17.7036C23.9139 17.7036 28.1572 19.0524 31.3607 21.7501C34.6204 24.3916 36.3626 28.0166 36.5874 32.6252H26.9769C26.8083 30.5457 25.9653 28.8878 24.4478 27.6513C22.9304 26.4148 20.879 25.7967 18.2937 25.7967C15.7646 25.7967 13.8257 26.2744 12.4768 27.2298C11.128 28.1852 10.4536 29.4498 10.4536 31.0234C10.4536 32.2599 10.9031 33.2996 11.8024 34.1426C12.7017 34.9857 13.7976 35.6601 15.0902 36.1659C16.3828 36.6155 18.2937 37.2056 20.8228 37.9363C24.1949 38.8355 26.9488 39.7629 29.0845 40.7183C31.2764 41.6175 33.1591 42.9664 34.7328 44.7648C36.3065 46.5632 37.1213 48.9519 37.1776 51.9305C37.1776 54.572 36.4469 56.9325 34.9857 59.012C33.5245 61.0917 31.445 62.7213 28.7473 63.9015C26.1058 65.0818 22.9866 65.6719 19.3897 65.6719Z" fill="url(#paint0_linear_1_566)"/>
<path d="M58.7742 26.3025V52.0149C58.7742 53.7571 59.1676 55.0217 59.9545 55.8085C60.7975 56.5391 62.2025 56.9044 64.1696 56.9044H70.0708V64.9132H62.4836C58.156 64.9132 54.8401 63.9016 52.5358 61.8783C50.2315 59.855 49.0794 56.5672 49.0794 52.0149V26.3025H43.5997V18.4623H49.0794V6.91284H58.7742V18.4623H70.0708V26.3025H58.7742Z" fill="url(#paint1_linear_1_566)"/>
<path d="M120.996 18.4623V64.9132H111.385V59.4335C109.868 61.3447 107.872 62.8621 105.4 63.9859C102.983 65.054 100.398 65.5876 97.6438 65.5876C93.9909 65.5876 90.7031 64.8289 87.7803 63.3115C84.914 61.794 82.6379 59.5456 80.9518 56.5672C79.322 53.5886 78.507 49.9916 78.507 45.7765V18.4623H88.0332V44.3433C88.0332 48.5022 89.0727 51.7057 91.1524 53.9538C93.2322 56.1457 96.0698 57.2416 99.667 57.2416C103.264 57.2416 106.102 56.1457 108.182 53.9538C110.317 51.7057 111.385 48.5022 111.385 44.3433V18.4623H120.996Z" fill="url(#paint2_linear_1_566)"/>
<path d="M130.472 41.477C130.472 36.8123 131.428 32.6814 133.338 29.0845C135.306 25.4875 137.947 22.7055 141.263 20.7385C144.635 18.7152 148.373 17.7036 152.475 17.7036C155.51 17.7036 158.489 18.378 161.411 19.7269C164.391 21.0195 166.751 22.7618 168.493 24.9536V2.52908H178.188V64.9132H168.493V57.916C166.92 60.1644 164.728 62.0191 161.917 63.48C159.164 64.941 155.988 65.6719 152.391 65.6719C148.344 65.6719 144.635 64.6603 141.263 62.637C137.947 60.5573 135.306 57.6912 133.338 54.0381C131.428 50.3288 130.472 46.1417 130.472 41.477ZM168.493 41.6456C168.493 38.4421 167.818 35.6601 166.469 33.2996C165.177 30.9391 163.463 29.1407 161.327 27.9042C159.192 26.6678 156.888 26.0496 154.414 26.0496C151.942 26.0496 149.638 26.6678 147.501 27.9042C145.366 29.0845 143.623 30.8548 142.275 33.2153C140.982 35.5196 140.336 38.2735 140.336 41.477C140.336 44.6805 140.982 47.4906 142.275 49.9073C143.623 52.324 145.366 54.1787 147.501 55.4713C149.693 56.7077 151.998 57.3259 154.414 57.3259C156.888 57.3259 159.192 56.7077 161.327 55.4713C163.463 54.2348 165.177 52.4364 166.469 50.0759C167.818 47.6592 168.493 44.8491 168.493 41.6456Z" fill="url(#paint3_linear_1_566)"/>
<path d="M195.701 12.3082C193.958 12.3082 192.497 11.7181 191.317 10.5379C190.137 9.35762 189.547 7.89639 189.547 6.15411C189.547 4.41182 190.137 2.9506 191.317 1.77036C192.497 0.590119 193.958 0 195.701 0C197.387 0 198.82 0.590119 200 1.77036C201.18 2.9506 201.77 4.41182 201.77 6.15411C201.77 7.89639 201.18 9.35762 200 10.5379C198.82 11.7181 197.387 12.3082 195.701 12.3082ZM200.422 18.4623V64.9132H190.811V18.4623H200.422Z" fill="url(#paint4_linear_1_566)"/>
<path d="M233.188 65.6719C228.804 65.6719 224.842 64.6881 221.301 62.7213C217.76 60.698 214.978 57.888 212.955 54.291C210.932 50.6379 209.92 46.4228 209.92 41.6456C209.92 36.9246 210.959 32.7376 213.039 29.0845C215.119 25.4314 217.957 22.6212 221.554 20.6542C225.151 18.6871 229.169 17.7036 233.609 17.7036C238.049 17.7036 242.067 18.6871 245.664 20.6542C249.262 22.6212 252.099 25.4314 254.179 29.0845C256.259 32.7376 257.298 36.9246 257.298 41.6456C257.298 46.3665 256.23 50.5536 254.095 54.2067C251.959 57.8598 249.036 60.698 245.327 62.7213C241.674 64.6881 237.628 65.6719 233.188 65.6719ZM233.188 57.3259C235.66 57.3259 237.965 56.7358 240.1 55.5556C242.292 54.3753 244.063 52.605 245.411 50.2445C246.76 47.884 247.435 45.0177 247.435 41.6456C247.435 38.2735 246.788 35.4353 245.496 33.131C244.203 30.7705 242.489 29.0002 240.353 27.8199C238.218 26.6397 235.913 26.0496 233.44 26.0496C230.968 26.0496 228.663 26.6397 226.528 27.8199C224.448 29.0002 222.791 30.7705 221.554 33.131C220.317 35.4353 219.699 38.2735 219.699 41.6456C219.699 46.6475 220.964 50.5255 223.493 53.2794C226.078 55.9771 229.31 57.3259 233.188 57.3259Z" fill="url(#paint5_linear_1_566)"/>
<path d="M278.537 25.3752C280.166 23.127 282.387 21.3005 285.196 19.8955C288.063 18.4342 291.238 17.7036 294.723 17.7036C298.826 17.7036 302.535 18.6872 305.851 20.6542C309.166 22.6212 311.78 25.4314 313.691 29.0845C315.602 32.6814 316.557 36.8123 316.557 41.477C316.557 46.1417 315.602 50.3288 313.691 54.0381C311.78 57.6912 309.139 60.5573 305.766 62.637C302.451 64.6603 298.769 65.6719 294.723 65.6719C291.126 65.6719 287.922 64.9697 285.112 63.5643C282.358 62.159 280.166 60.3608 278.537 58.169V64.9132H268.926V2.52908H278.537V25.3752ZM306.778 41.477C306.778 38.2735 306.104 35.5196 304.755 33.2153C303.462 30.8548 301.72 29.0845 299.528 27.9042C297.393 26.6678 295.088 26.0496 292.615 26.0496C290.198 26.0496 287.894 26.6678 285.702 27.9042C283.567 29.1407 281.824 30.9391 280.476 33.2996C279.183 35.6601 278.537 38.4421 278.537 41.6456C278.537 44.8491 279.183 47.6592 280.476 50.0759C281.824 52.4364 283.567 54.2348 285.702 55.4713C287.894 56.7077 290.198 57.3259 292.615 57.3259C295.088 57.3259 297.393 56.7077 299.528 55.4713C301.72 54.1787 303.462 52.324 304.755 49.9073C306.104 47.4906 306.778 44.6805 306.778 41.477Z" fill="url(#paint6_linear_1_566)"/>
<path d="M368.634 40.5497C368.634 42.2919 368.521 43.8655 368.296 45.2706H332.805C333.086 48.9799 334.463 51.9586 336.936 54.2067C339.409 56.4548 342.444 57.5788 346.04 57.5788C351.212 57.5788 354.864 55.415 357 51.0875H367.369C365.965 55.3589 363.407 58.8714 359.697 61.6254C356.045 64.3231 351.492 65.6719 346.04 65.6719C341.601 65.6719 337.61 64.6881 334.069 62.7213C330.585 60.698 327.831 57.888 325.808 54.291C323.841 50.6379 322.857 46.4228 322.857 41.6456C322.857 36.8684 323.813 32.6814 325.723 29.0845C327.691 25.4314 330.417 22.6212 333.901 20.6542C337.442 18.6871 341.488 17.7036 346.04 17.7036C350.424 17.7036 354.331 18.659 357.758 20.5699C361.187 22.4808 363.857 25.1785 365.767 28.663C367.678 32.0913 368.634 36.0535 368.634 40.5497ZM358.602 37.5147C358.546 33.974 357.281 31.1358 354.808 29.0002C352.335 26.8645 349.273 25.7967 345.619 25.7967C342.303 25.7967 339.465 26.8645 337.104 29.0002C334.744 31.0797 333.339 33.9178 332.889 37.5147H358.602Z" fill="url(#paint7_linear_1_566)"/>
<path d="M420.664 40.5497C420.664 42.2919 420.552 43.8655 420.327 45.2706H384.836C385.117 48.9799 386.494 51.9586 388.967 54.2067C391.44 56.4548 394.475 57.5788 398.071 57.5788C403.242 57.5788 406.895 55.415 409.031 51.0875H419.4C417.995 55.3589 415.438 58.8714 411.728 61.6254C408.076 64.3231 403.523 65.6719 398.071 65.6719C393.632 65.6719 389.641 64.6881 386.1 62.7213C382.616 60.698 379.862 57.888 377.839 54.291C375.872 50.6379 374.888 46.4228 374.888 41.6456C374.888 36.8684 375.844 32.6814 377.754 29.0845C379.721 25.4314 382.447 22.6212 385.932 20.6542C389.472 18.6871 393.519 17.7036 398.071 17.7036C402.455 17.7036 406.362 18.659 409.789 20.5699C413.218 22.4808 415.888 25.1785 417.798 28.663C419.709 32.0913 420.664 36.0535 420.664 40.5497ZM410.632 37.5147C410.577 33.974 409.312 31.1358 406.839 29.0002C404.366 26.8645 401.303 25.7967 397.65 25.7967C394.334 25.7967 391.496 26.8645 389.135 29.0002C386.775 31.0797 385.369 33.9178 384.92 37.5147H410.632Z" fill="url(#paint8_linear_1_566)"/>
<path d="M453.559 17.7036C457.211 17.7036 460.471 18.4623 463.338 19.9798C466.26 21.4972 468.537 23.7453 470.166 26.724C471.796 29.7027 472.611 33.2996 472.611 37.5148V64.9132H463.085V38.9479C463.085 34.789 462.045 31.6136 459.966 29.4217C457.886 27.1736 455.048 26.0496 451.451 26.0496C447.854 26.0496 444.987 27.1736 442.852 29.4217C440.772 31.6136 439.733 34.789 439.733 38.9479V64.9132H430.122V18.4623H439.733V23.7734C441.307 21.8625 443.301 20.3732 445.718 19.3053C448.191 18.2375 450.804 17.7036 453.559 17.7036Z" fill="url(#paint9_linear_1_566)"/>
<defs>
<linearGradient id="paint0_linear_1_566" x1="0" y1="36.6717" x2="599.908" y2="36.6717" gradientUnits="userSpaceOnUse">
<stop stop-color="#0A6545"/>
<stop offset="0.4" stop-color="#263396"/>
<stop offset="0.6" stop-color="#20949A"/>
<stop offset="0.8" stop-color="#92C3A1"/>
</linearGradient>
<linearGradient id="paint1_linear_1_566" x1="-5.37555e-06" y1="36.6717" x2="599.908" y2="36.6717" gradientUnits="userSpaceOnUse">
<stop stop-color="#0A6545"/>
<stop offset="0.4" stop-color="#263396"/>
<stop offset="0.6" stop-color="#20949A"/>
<stop offset="0.8" stop-color="#92C3A1"/>
</linearGradient>
<linearGradient id="paint2_linear_1_566" x1="1.1273e-05" y1="36.6718" x2="599.908" y2="36.6718" gradientUnits="userSpaceOnUse">
<stop stop-color="#0A6545"/>
<stop offset="0.4" stop-color="#263396"/>
<stop offset="0.6" stop-color="#20949A"/>
<stop offset="0.8" stop-color="#92C3A1"/>
</linearGradient>
<linearGradient id="paint3_linear_1_566" x1="5.6594e-05" y1="36.6717" x2="599.908" y2="36.6717" gradientUnits="userSpaceOnUse">
<stop stop-color="#0A6545"/>
<stop offset="0.4" stop-color="#263396"/>
<stop offset="0.6" stop-color="#20949A"/>
<stop offset="0.8" stop-color="#92C3A1"/>
</linearGradient>
<linearGradient id="paint4_linear_1_566" x1="-6.91798e-07" y1="36.6717" x2="599.908" y2="36.6717" gradientUnits="userSpaceOnUse">
<stop stop-color="#0A6545"/>
<stop offset="0.4" stop-color="#263396"/>
<stop offset="0.6" stop-color="#20949A"/>
<stop offset="0.8" stop-color="#92C3A1"/>
</linearGradient>
<linearGradient id="paint5_linear_1_566" x1="-8.15288e-06" y1="36.6717" x2="599.908" y2="36.6717" gradientUnits="userSpaceOnUse">
<stop stop-color="#0A6545"/>
<stop offset="0.4" stop-color="#263396"/>
<stop offset="0.6" stop-color="#20949A"/>
<stop offset="0.8" stop-color="#92C3A1"/>
</linearGradient>
<linearGradient id="paint6_linear_1_566" x1="-127.297" y1="36.6717" x2="472.611" y2="36.6717" gradientUnits="userSpaceOnUse">
<stop stop-color="#92C3A1"/>
<stop offset="0.5" stop-color="#34D3C4"/>
<stop offset="1" stop-color="#0A6545"/>
</linearGradient>
<linearGradient id="paint7_linear_1_566" x1="-127.297" y1="36.6717" x2="472.611" y2="36.6717" gradientUnits="userSpaceOnUse">
<stop stop-color="#92C3A1"/>
<stop offset="0.5" stop-color="#34D3C4"/>
<stop offset="1" stop-color="#0A6545"/>
</linearGradient>
<linearGradient id="paint8_linear_1_566" x1="-127.297" y1="36.6717" x2="472.611" y2="36.6717" gradientUnits="userSpaceOnUse">
<stop stop-color="#92C3A1"/>
<stop offset="0.5" stop-color="#34D3C4"/>
<stop offset="1" stop-color="#0A6545"/>
</linearGradient>
<linearGradient id="paint9_linear_1_566" x1="-127.298" y1="36.6717" x2="472.611" y2="36.6717" gradientUnits="userSpaceOnUse">
<stop stop-color="#92C3A1"/>
<stop offset="0.5" stop-color="#34D3C4"/>
<stop offset="1" stop-color="#0A6545"/>
</linearGradient>
</defs>
</svg>
